<?xml version="1.0" encoding="UTF-8"?>
<svg id="Layer_1" data-name="Layer 1" xmlns="http://www.w3.org/2000/svg" viewBox="0 0 316.95 316.95">
  <defs>
    <style>
      .cls-1 {
        fill: #535454;
      }

      .cls-2 {
        fill: #00899c;
      }
    </style>
  </defs>
  <g>
    <path class="cls-2" d="M59.13,212.41c-2.67-9.59-4-19.82-4-30.72s1.33-21.14,4-30.72c2.67-9.58,6.46-17.96,11.39-25.11h21.71c-5.17,9.15-8.95,18.23-11.33,27.26-2.39,9.03-3.58,18.55-3.58,28.58s1.19,19.55,3.58,28.57c2.38,9.03,6.16,18.11,11.33,27.26h-21.71c-4.93-7.16-8.73-15.53-11.39-25.11Z"/>
    <path class="cls-2" d="M115.05,235.62c-2.63-2.54-3.94-5.77-3.94-9.66s1.29-7.2,3.88-9.66c2.58-2.46,5.82-3.7,9.72-3.7s7.24,1.23,9.78,3.7c2.55,2.47,3.82,5.69,3.82,9.66s-1.29,7.12-3.88,9.66c-2.58,2.55-5.83,3.82-9.72,3.82s-7.04-1.27-9.66-3.82Z"/>
    <path class="cls-2" d="M148.81,235.62c-2.63-2.54-3.94-5.77-3.94-9.66s1.29-7.2,3.88-9.66c2.58-2.46,5.82-3.7,9.72-3.7s7.24,1.23,9.78,3.7c2.55,2.47,3.82,5.69,3.82,9.66s-1.29,7.12-3.88,9.66c-2.58,2.55-5.83,3.82-9.72,3.82s-7.04-1.27-9.66-3.82Z"/>
    <path class="cls-2" d="M182.57,235.62c-2.63-2.54-3.94-5.77-3.94-9.66s1.29-7.2,3.88-9.66c2.58-2.46,5.82-3.7,9.72-3.7s7.24,1.23,9.78,3.7c2.55,2.47,3.82,5.69,3.82,9.66s-1.29,7.12-3.88,9.66c-2.58,2.55-5.83,3.82-9.72,3.82s-7.04-1.27-9.66-3.82Z"/>
    <path class="cls-2" d="M222.62,189.17c5.17-9.15,8.95-18.23,11.33-27.26,2.38-9.03,3.58-18.55,3.58-28.57s-1.19-19.55-3.58-28.58c-2.39-9.02-6.17-18.11-11.33-27.26h21.71c4.93,7.16,8.73,15.53,11.39,25.11,2.67,9.59,4,19.82,4,30.72s-1.33,21.14-4,30.72c-2.67,9.58-6.46,17.95-11.39,25.11h-21.71Z"/>
  </g>
  <path class="cls-1" d="M179.54,138h24.1v50.26h-18.86v-5.92c-6.52,5.23-15.15,7.85-25.89,7.85-9,0-17.21-1.93-24.65-5.78-7.44-3.86-13.34-9.48-17.69-16.87-4.36-7.39-6.54-16.23-6.54-26.51s2.29-18.75,6.88-26.51c4.59-7.76,10.97-13.79,19.14-18.11,8.17-4.31,17.4-6.47,27.68-6.47,9,0,17.07,1.51,24.23,4.54,7.16,3.03,13.13,7.39,17.9,13.08l-17.35,15.7c-6.52-7.16-14.32-10.74-23.41-10.74-8.35,0-15.03,2.55-20.04,7.64-5,5.09-7.5,12-7.5,20.72s2.34,15.56,7.02,20.24c4.68,4.68,10.6,7.02,17.76,7.02s12.62-1.83,17.21-5.51v-24.65Z"/>
  <path class="cls-2" d="M158.47,316.95C71.09,316.95,0,245.86,0,158.47S71.09,0,158.47,0s158.47,71.09,158.47,158.47-71.09,158.48-158.47,158.48ZM158.47,13.38C78.47,13.38,13.38,78.47,13.38,158.47s65.09,145.09,145.09,145.09,145.09-65.09,145.09-145.09S238.48,13.38,158.47,13.38Z"/>
</svg>